<?xml version="1.0" encoding="utf-8"?>
<!-- Generator: Adobe Illustrator 17.1.0, SVG Export Plug-In . SVG Version: 6.00 Build 0)  -->
<!DOCTYPE svg PUBLIC "-//W3C//DTD SVG 1.1//EN" "http://www.w3.org/Graphics/SVG/1.1/DTD/svg11.dtd">
<svg version="1.1" id="Layer_1" xmlns="http://www.w3.org/2000/svg" xmlns:xlink="http://www.w3.org/1999/xlink" x="0px" y="0px"
	 viewBox="0 0 100 52.5" enable-background="new 0 0 100 52.5" xml:space="preserve">
<g>
	<g>
		<path fill="#49B749" d="M10.7,50.8c-1.4,0-2.6-0.9-2.9-2.3L2.4,26.1C2,24.5,3,22.9,4.6,22.5L89.7,1.7c0.2-0.1,0.5-0.1,0.7-0.1
			c1.4,0,2.6,0.9,2.9,2.3l5.5,22.4c0.4,1.6-0.6,3.2-2.2,3.6L11.5,50.7C11.2,50.8,11,50.8,10.7,50.8z M90.5,2.7c-0.2,0-0.3,0-0.5,0.1
			L4.8,23.6c-1,0.2-1.6,1.3-1.4,2.3l5.5,22.4c0.2,0.9,1,1.5,1.8,1.5c0.2,0,0.3,0,0.5-0.1l85.2-20.8c1-0.2,1.6-1.3,1.4-2.3L92.3,4.2
			C92.1,3.3,91.3,2.7,90.5,2.7z"/>
	</g>
	<g>
		<g>
			<path fill="#49B749" d="M16.3,31.7l0.8,3.3l1.3-3.8l1.5-0.4l1.3,5.4l-1.5,0.4L19,33.4l-1.3,3.8l-1.5,0.4l-1.3-5.4L16.3,31.7z"/>
		</g>
		<g>
			<path fill="#49B749" d="M26.4,34.8c-0.4,0.5-0.9,0.6-1.4,0.8c-1.6,0.4-3.1-0.5-3.5-2.2c-0.4-1.8,0.6-3.2,2.1-3.5
				c0.5-0.1,1.1-0.1,1.6,0.1l0.4,1.6c-0.4-0.3-0.9-0.5-1.4-0.3c-0.8,0.2-1.2,1-1,1.9c0.2,0.8,0.9,1.3,1.7,1.1
				c0.6-0.1,0.9-0.5,1.1-0.9L26.4,34.8z"/>
		</g>
		<g>
			<path fill="#49B749" d="M31.1,28.1l1.3,5.4l-1.5,0.4l-1-4.1l-1.8,0.4l1,4.1l-1.5,0.4l-1.3-5.4L31.1,28.1z"/>
		</g>
		<g>
			<path fill="#49B749" d="M32.7,30.6C32.4,29.2,33,27.5,35,27c2-0.5,3.3,0.7,3.6,2.2s-0.2,3.1-2.2,3.6S33.1,32.1,32.7,30.6z
				 M37,29.6c-0.3-1-1-1.4-1.7-1.2c-0.7,0.2-1.2,0.9-1,1.9c0.3,1,1,1.4,1.7,1.2C36.8,31.3,37.3,30.6,37,29.6z"/>
		</g>
		<g>
			<path fill="#49B749" d="M43.7,25.1l1.3,5.4l-1.5,0.4l-1-4.1L41.4,27l0.5,2.1c0.2,0.8,0.4,2.1-1.5,2.5c-0.2,0.1-0.4,0.1-0.7,0.1
				l-0.3-1.3c0.1,0,0.2,0,0.3,0c0.7-0.2,0.7-0.6,0.5-1.4l-0.7-3L43.7,25.1z"/>
		</g>
		<g>
			<path fill="#49B749" d="M44.9,24.8l1.5-0.4l0.5,2.1l0.8-0.2c0.8-0.2,2.2-0.4,2.5,1.1c0.4,1.5-1,2-1.7,2.2l-2.3,0.6L44.9,24.8z
				 M48.1,28.6c0.5-0.1,0.7-0.3,0.6-0.8c-0.1-0.4-0.4-0.5-0.9-0.4l-0.7,0.2l0.3,1.1L48.1,28.6z"/>
		</g>
		<g>
			<path fill="#49B749" d="M50.3,23.8c0.2-0.2,0.8-0.7,1.7-1c1.2-0.3,2.2,0.1,2.5,1c0.1,0.5-0.1,1.1-0.6,1.4l0,0
				c0.5,0,1.1,0.2,1.3,1c0.3,1-0.5,1.9-1.8,2.2c-0.8,0.2-1.3,0.2-2.3-0.3l0.4-1.2c0.5,0.3,1.1,0.4,1.5,0.3c0.7-0.2,0.7-0.6,0.7-0.8
				c-0.1-0.3-0.4-0.5-1-0.4l-0.9,0.2l-0.3-1.1l0.9-0.2c0.7-0.2,0.7-0.5,0.7-0.8c-0.1-0.3-0.4-0.5-0.9-0.4c-0.4,0.1-0.7,0.3-1,0.6
				L50.3,23.8z"/>
		</g>
		<g>
			<path fill="#49B749" d="M55.6,25c-0.4-1.5,0.2-3.1,2.2-3.6c2-0.5,3.3,0.7,3.6,2.2c0.4,1.5-0.2,3.1-2.2,3.6
				C57.3,27.7,56,26.5,55.6,25z M59.9,24c-0.3-1-1-1.4-1.7-1.2c-0.7,0.2-1.2,0.9-1,1.9c0.3,1,1,1.4,1.7,1.2
				C59.6,25.7,60.2,25,59.9,24z"/>
		</g>
		<g>
			<path fill="#49B749" d="M64.4,20c1.5-0.4,1.9,0.6,2,1c0.1,0.6-0.2,1.1-0.6,1.3l0,0c0.4,0,1.2,0.1,1.5,1.1
				c0.2,0.8-0.1,1.6-1.4,1.9l-2.8,0.7l-1.3-5.4L64.4,20z M64.5,22.2c0.6-0.1,0.6-0.5,0.6-0.7c-0.1-0.3-0.3-0.5-0.8-0.4l-0.6,0.2
				l0.3,1.1L64.5,22.2z M65.1,24.4c0.2-0.1,0.8-0.2,0.7-0.8c-0.1-0.5-0.7-0.4-0.9-0.3l-0.7,0.2l0.3,1.1L65.1,24.4z"/>
		</g>
		<g>
			<path fill="#49B749" d="M68.7,18.9l1.8-0.5l3.3,5l-1.6,0.4L71.7,23l-1.8,0.5l-0.1,1l-1.6,0.4L68.7,18.9z M69.8,22.2l1.2-0.3
				L70,20L69.8,22.2z"/>
		</g>
		<g>
			<path fill="#49B749" d="M73.3,17.8l1.5-0.4l0.5,2l1.8-0.5l-0.5-2l1.5-0.4l1.3,5.4L78,22.4l-0.5-2.2l-1.8,0.5l0.5,2.2l-1.5,0.4
				L73.3,17.8z"/>
		</g>
		<g>
			<path fill="#49B749" d="M79.8,19.1C79.4,17.6,80,16,82,15.5s3.3,0.7,3.6,2.2c0.4,1.5-0.2,3.1-2.2,3.6
				C81.4,21.7,80.1,20.6,79.8,19.1z M84.1,18.1c-0.3-1-1-1.4-1.7-1.2c-0.7,0.2-1.2,0.9-1,1.9c0.3,1,1,1.4,1.7,1.2
				C83.8,19.8,84.3,19.1,84.1,18.1z"/>
		</g>
	</g>
</g>
</svg>
